<?xml version="1.0" encoding="UTF-8"?>
<svg id="Layer_1" data-name="Layer 1" xmlns="http://www.w3.org/2000/svg" viewBox="0 0 287.5 301.74">
  <defs>
    <style>
      .cls-1 {
        fill: none;
        stroke: #f58238;
        stroke-linecap: round;
        stroke-linejoin: round;
        stroke-width: 20px;
      }
    </style>
  </defs>
  <path class="cls-1" d="M197.93,135.93c-21.66,15.7-63.46,19.22-93.38,7.85-5.74-2.18-10.79-4.83-14.95-7.85"/>
  <path class="cls-1" d="M209.58,180.1l59.91,28.64c6.76,3.12,9.84,11.4,6.87,18.5-1.35,3.22-3.79,5.79-6.86,7.21l-114.66,54.76c-7.05,3.38-15.15,3.38-22.2,0l-114.66-54.9c-6.76-3.13-9.82-11.42-6.84-18.51,1.35-3.21,3.79-5.77,6.84-7.18l59.97-28.64"/>
  <path class="cls-1" d="M209.95,180.49c5.21,19.19-20.21,36.97-56.77,39.7-36.56,2.73-70.42-10.61-75.63-29.8-.89-3.28-.89-6.62,0-9.9L117.86,31.1c3.68-15.02,18.26-24.07,32.56-20.2,9.44,2.55,16.82,10.29,19.24,20.2l40.28,149.4Z"/>
  <path class="cls-1" d="M106.24,74.2c22.65,8.06,52.37,8.06,75.03,0"/>
</svg>